<svg width="117" height="51" viewBox="0 0 117 51" fill="none" xmlns="http://www.w3.org/2000/svg">
<circle cx="25" cy="25" r="25" fill="#4F46E5"/>
<path d="M18.001 18.758V39H28.731V35.781H22.061V18.758H18.001ZM30.2675 30.909C30.2675 35.926 33.5155 39.261 37.6045 39.261C40.1275 39.261 41.9545 38.014 42.9115 36.622V39.116C42.9115 42.103 41.1715 43.379 38.9385 43.379C36.9085 43.379 35.4005 42.422 34.9945 40.972H30.9635C31.3695 44.655 34.5305 46.917 39.0545 46.917C44.3325 46.917 47.0005 43.466 47.0005 39.116V22.934H42.9115V25.225C41.9545 23.833 40.1275 22.673 37.6045 22.673C33.5155 22.673 30.2675 25.892 30.2675 30.909ZM42.9115 30.967C42.9115 34.012 40.8815 35.694 38.6485 35.694C36.4735 35.694 34.4145 33.954 34.4145 30.909C34.4145 27.864 36.4735 26.24 38.6485 26.24C40.8815 26.24 42.9115 27.922 42.9115 30.967Z" fill="white"/>
<path d="M60.656 16.248V33H69.536V30.336H64.016V16.248H60.656ZM84.5116 26.352C84.5116 22.152 81.5116 19.488 77.6716 19.488C73.8316 19.488 70.8316 22.152 70.8316 26.352C70.8316 30.528 73.7356 33.216 77.5756 33.216C81.4396 33.216 84.5116 30.528 84.5116 26.352ZM74.2396 26.352C74.2396 23.688 75.8476 22.416 77.6236 22.416C79.3996 22.416 81.0556 23.688 81.0556 26.352C81.0556 28.992 79.3516 30.288 77.5756 30.288C75.7756 30.288 74.2396 28.992 74.2396 26.352ZM86.1123 26.304C86.1123 30.456 88.8003 33.216 92.1843 33.216C94.2723 33.216 95.7843 32.184 96.5763 31.032V33.096C96.5763 35.568 95.1363 36.624 93.2883 36.624C91.6083 36.624 90.3603 35.832 90.0243 34.632H86.6883C87.0243 37.68 89.6403 39.552 93.3843 39.552C97.7523 39.552 99.9603 36.696 99.9603 33.096V19.704H96.5763V21.6C95.7843 20.448 94.2723 19.488 92.1843 19.488C88.8003 19.488 86.1123 22.152 86.1123 26.304ZM96.5763 26.352C96.5763 28.872 94.8963 30.264 93.0483 30.264C91.2483 30.264 89.5443 28.824 89.5443 26.304C89.5443 23.784 91.2483 22.44 93.0483 22.44C94.8963 22.44 96.5763 23.832 96.5763 26.352ZM116.082 26.352C116.082 22.152 113.082 19.488 109.242 19.488C105.402 19.488 102.402 22.152 102.402 26.352C102.402 30.528 105.306 33.216 109.146 33.216C113.01 33.216 116.082 30.528 116.082 26.352ZM105.81 26.352C105.81 23.688 107.418 22.416 109.194 22.416C110.97 22.416 112.626 23.688 112.626 26.352C112.626 28.992 110.922 30.288 109.146 30.288C107.346 30.288 105.81 28.992 105.81 26.352Z" fill="black"/>
</svg>
