<svg width="125" height="51" viewBox="0 0 125 51" fill="none" xmlns="http://www.w3.org/2000/svg">
<circle cx="25" cy="25" r="25" fill="#4F46E5"/>
<path d="M18.001 18.758V39H28.731V35.781H22.061V18.758H18.001ZM30.2675 30.909C30.2675 35.926 33.5155 39.261 37.6045 39.261C40.1275 39.261 41.9545 38.014 42.9115 36.622V39.116C42.9115 42.103 41.1715 43.379 38.9385 43.379C36.9085 43.379 35.4005 42.422 34.9945 40.972H30.9635C31.3695 44.655 34.5305 46.917 39.0545 46.917C44.3325 46.917 47.0005 43.466 47.0005 39.116V22.934H42.9115V25.225C41.9545 23.833 40.1275 22.673 37.6045 22.673C33.5155 22.673 30.2675 25.892 30.2675 30.909ZM42.9115 30.967C42.9115 34.012 40.8815 35.694 38.6485 35.694C36.4735 35.694 34.4145 33.954 34.4145 30.909C34.4145 27.864 36.4735 26.24 38.6485 26.24C40.8815 26.24 42.9115 27.922 42.9115 30.967Z" fill="white"/>
<path d="M68.656 16.248V33H77.536V30.336H72.016V16.248H68.656ZM92.5116 26.352C92.5116 22.152 89.5116 19.488 85.6716 19.488C81.8316 19.488 78.8316 22.152 78.8316 26.352C78.8316 30.528 81.7356 33.216 85.5756 33.216C89.4396 33.216 92.5116 30.528 92.5116 26.352ZM82.2396 26.352C82.2396 23.688 83.8476 22.416 85.6236 22.416C87.3996 22.416 89.0556 23.688 89.0556 26.352C89.0556 28.992 87.3516 30.288 85.5756 30.288C83.7756 30.288 82.2396 28.992 82.2396 26.352ZM94.1123 26.304C94.1123 30.456 96.8003 33.216 100.184 33.216C102.272 33.216 103.784 32.184 104.576 31.032V33.096C104.576 35.568 103.136 36.624 101.288 36.624C99.6083 36.624 98.3603 35.832 98.0243 34.632H94.6883C95.0243 37.68 97.6403 39.552 101.384 39.552C105.752 39.552 107.96 36.696 107.96 33.096V19.704H104.576V21.6C103.784 20.448 102.272 19.488 100.184 19.488C96.8003 19.488 94.1123 22.152 94.1123 26.304ZM104.576 26.352C104.576 28.872 102.896 30.264 101.048 30.264C99.2483 30.264 97.5443 28.824 97.5443 26.304C97.5443 23.784 99.2483 22.44 101.048 22.44C102.896 22.44 104.576 23.832 104.576 26.352ZM124.082 26.352C124.082 22.152 121.082 19.488 117.242 19.488C113.402 19.488 110.402 22.152 110.402 26.352C110.402 30.528 113.306 33.216 117.146 33.216C121.01 33.216 124.082 30.528 124.082 26.352ZM113.81 26.352C113.81 23.688 115.418 22.416 117.194 22.416C118.97 22.416 120.626 23.688 120.626 26.352C120.626 28.992 118.922 30.288 117.146 30.288C115.346 30.288 113.81 28.992 113.81 26.352Z" fill="white"/>
</svg>
